<?xml version="1.0" encoding="utf-8"?>
<!-- Uploaded to: SVG Repo, www.svgrepo.com, Generator: SVG Repo Mixer Tools -->
<svg width="800px" height="800px" viewBox="0 0 1024 1024" class="icon"  version="1.1" xmlns="http://www.w3.org/2000/svg"><path d="M142.9 736c-11.5 0-22.7-6.3-28.4-17.2C81.5 655.4 64 583.9 64 512c0-60.5 11.8-119.1 35.2-174.4 22.6-53.4 54.9-101.3 96-142.4s89-73.4 142.4-96C392.9 75.8 451.5 64 512 64c47.3 0 93.9 7.3 138.4 21.8 16.8 5.5 26 23.5 20.6 40.3-5.5 16.8-23.5 26-40.3 20.6C592.5 134.3 552.6 128 512 128c-211.7 0-384 172.3-384 384 0 62.5 14.5 122.2 43.2 177.2 8.2 15.7 2.1 35-13.6 43.2-4.7 2.4-9.7 3.6-14.7 3.6zM704.2 913.1c-11.5 0-22.7-6.3-28.4-17.2-8.2-15.7-2.1-35 13.6-43.2C816.8 786.2 896 655.7 896 512c0-19.8-1.5-39.7-4.5-59.1-2.7-17.5 9.3-33.8 26.7-36.5 17.5-2.7 33.8 9.3 36.5 26.7 3.5 22.6 5.3 45.8 5.3 68.9 0 83.5-23.1 164.9-66.8 235.5-42.5 68.6-102.7 124.6-174.2 161.9-4.8 2.5-9.9 3.7-14.8 3.7z" fill="#FFEA00" /><path d="M259.9 530.5a117.2 146.5 0 1 0 234.4 0 117.2 146.5 0 1 0-234.4 0Z" fill="#3D5AFE" /><path d="M506.1 960c140.7 0 160.9-65.1 43.7-143-49.5-32.9-108.9-52-172.7-52s-123.3 19.2-172.7 52c-117.2 77.9-97 143 43.7 143h258z" fill="#3D5AFE" /><path d="M733.2 193.1a52.1 65.1 0 1 0 104.2 0 52.1 65.1 0 1 0-104.2 0Z" fill="#8C9EFF" /><path d="M842.7 384c62.5 0 71.5-28.9 19.4-63.5-22-14.6-48.4-23.1-76.8-23.1s-54.8 8.5-76.8 23.1c-52.1 34.6-43.1 63.5 19.4 63.5h114.8z" fill="#8C9EFF" /></svg>